<svg xmlns="http://www.w3.org/2000/svg" viewBox="0 0 9.85 12.96"><defs><style>.cls-1,.cls-2{fill:#2a373d;}.cls-1{fill-rule:evenodd;}</style></defs><g id="Camada_2" data-name="Camada 2"><g id="Camada_1-2" data-name="Camada 1"><path class="cls-1" d="M8.05,13H1.8a1,1,0,0,1-.61-.22.88.88,0,0,1-.31-.56L0,6.56a.91.91,0,0,1,0-.4.9.9,0,0,1,.18-.35,1.08,1.08,0,0,1,.32-.24,1,1,0,0,1,.39-.08h8a1,1,0,0,1,.39.08.92.92,0,0,1,.31.24.8.8,0,0,1,.19.35.91.91,0,0,1,0,.4L9,12.18a.88.88,0,0,1-.31.56A1,1,0,0,1,8.05,13Z"/><path class="cls-2" d="M8.09,3.11H6.93a2,2,0,0,0-4,0H1.76A3.16,3.16,0,0,1,7.14.91,3.19,3.19,0,0,1,8.09,3.11Z"/></g></g></svg>