<svg xmlns="http://www.w3.org/2000/svg" viewBox="0 0 10.16 13.46"><defs><style>.cls-1,.cls-2{fill:#2a373d;}.cls-1{fill-rule:evenodd;}</style></defs><g id="Camada_2" data-name="Camada 2"><g id="Camada_1-2" data-name="Camada 1"><path class="cls-1" d="M9.14,13.46H1a1,1,0,0,1-1-1V9.1a1,1,0,0,1,.79-1L2.15,7.8A13.17,13.17,0,0,1,8,7.8l1.36.31a1,1,0,0,1,.79,1v3.34A1,1,0,0,1,9.14,13.46Z"/><path class="cls-2" d="M8.24,3.16H7.09a2,2,0,1,0-4,0H1.91a3.17,3.17,0,0,1,6.33,0Z"/><path class="cls-2" d="M5.08,6.33A3.17,3.17,0,0,1,1.91,3.16H3.07a2,2,0,1,0,4,0H8.24A3.17,3.17,0,0,1,5.08,6.33Z"/></g></g></svg>